<svg width="741.615" height="76.702" viewBox="0 0 741.615 76.702" xmlns="http://www.w3.org/2000/svg"><g id="svgGroup" stroke-linecap="round" fill-rule="evenodd" font-size="9pt" stroke="#000000" stroke-width="0.1mm" fill="#000000" style="stroke:#000000;stroke-width:0.1mm;fill:#000000"><path d="M 184.109 1.026 L 184.109 75.675 L 181.34 75.675 L 133.147 5.743 L 133.147 75.675 L 130.327 75.675 L 130.327 1.026 L 133.147 1.026 L 181.34 70.804 L 181.34 1.026 L 184.109 1.026 Z M 552.788 22.047 L 550.02 22.047 A 18.518 18.518 0 0 0 548.433 14.306 A 18.101 18.101 0 0 0 543.867 8.23 A 21.253 21.253 0 0 0 533.45 3.257 A 29.982 29.982 0 0 0 527.922 2.769 A 36.133 36.133 0 0 0 521.334 3.336 Q 517.51 4.045 514.45 5.644 A 20.039 20.039 0 0 0 512.003 7.153 A 16.636 16.636 0 0 0 508.544 10.43 A 12.272 12.272 0 0 0 505.928 18.15 A 13.766 13.766 0 0 0 507.088 23.872 Q 508.362 26.698 511.035 28.831 A 16.702 16.702 0 0 0 511.208 28.968 Q 516.489 33.07 528.64 36.223 Q 540.791 39.376 546.431 43.529 A 17.829 17.829 0 0 1 551.4 48.944 Q 553.47 52.521 553.6 57.068 A 21.47 21.47 0 0 1 553.608 57.679 A 16.414 16.414 0 0 1 550.43 67.651 Q 547.251 71.983 541.406 74.342 A 32.288 32.288 0 0 1 533.117 76.421 A 40.759 40.759 0 0 1 528.281 76.7 Q 520.181 76.7 513.721 74.008 A 24.496 24.496 0 0 1 508.682 71.217 A 18.673 18.673 0 0 1 504.005 66.344 A 19.874 19.874 0 0 1 500.953 57.875 A 25.598 25.598 0 0 1 500.75 54.603 L 503.518 54.603 A 19.558 19.558 0 0 0 504.525 61.028 A 16.153 16.153 0 0 0 510.388 68.856 Q 516.772 73.572 526.741 73.906 A 46.007 46.007 0 0 0 528.281 73.932 Q 537.327 73.932 543.441 70.104 A 21.545 21.545 0 0 0 544.431 69.445 Q 550.789 64.959 550.789 57.782 A 16.95 16.95 0 0 0 550.377 53.954 A 12.602 12.602 0 0 0 548.558 49.707 Q 546.666 46.901 542.929 44.649 A 28.909 28.909 0 0 0 541.534 43.862 A 38.036 38.036 0 0 0 538.257 42.344 Q 534.894 40.957 530.112 39.533 A 152.517 152.517 0 0 0 527.051 38.658 Q 517.361 35.992 512.516 33.275 A 25.172 25.172 0 0 1 509.126 31.019 Q 507.374 29.621 506.162 28.042 A 14.057 14.057 0 0 1 505.415 26.969 A 14.392 14.392 0 0 1 503.483 21.917 A 19.811 19.811 0 0 1 503.159 18.253 A 15.358 15.358 0 0 1 508.326 6.447 A 20.375 20.375 0 0 1 510.029 5.051 A 24.758 24.758 0 0 1 518.785 1.038 Q 522.928 0.001 527.922 0.001 A 31.654 31.654 0 0 1 535.485 0.873 A 26.457 26.457 0 0 1 540.817 2.795 A 21.863 21.863 0 0 1 547.047 7.268 A 20.168 20.168 0 0 1 549.661 10.639 Q 552.788 15.689 552.788 22.047 Z M 272.19 35.89 L 272.19 38.658 L 234.763 38.658 L 234.763 72.906 L 277.419 72.906 L 277.419 75.675 L 231.995 75.675 L 231.995 1.026 L 277.419 1.026 L 277.419 3.795 L 234.763 3.795 L 234.763 35.89 L 272.19 35.89 Z M 420.103 75.675 L 385.803 36.402 L 373.857 47.425 L 373.857 75.675 L 371.089 75.675 L 371.089 1.026 L 373.857 1.026 L 373.857 44.195 L 386.162 32.147 L 417.129 1.026 L 421.128 1.026 L 387.854 34.505 L 423.691 75.675 L 420.103 75.675 Z M 115.305 75.675 L 106.948 53.372 L 70.393 53.372 L 62.087 75.675 L 59.063 75.675 L 87.004 1.026 L 90.388 1.026 L 118.33 75.675 L 115.305 75.675 Z M 679.167 75.675 L 670.811 53.372 L 634.255 53.372 L 625.95 75.675 L 622.925 75.675 L 650.867 1.026 L 654.25 1.026 L 682.192 75.675 L 679.167 75.675 Z M 592.214 75.675 L 568.169 75.675 L 568.169 1.026 L 587.805 1.026 Q 595.353 1.026 600.597 2.948 A 19.44 19.44 0 0 1 606.031 5.922 Q 612.209 10.819 612.209 20.15 A 21.953 21.953 0 0 1 611.643 25.268 A 15.975 15.975 0 0 1 608.774 31.378 A 14.812 14.812 0 0 1 601.509 36.436 A 19.846 19.846 0 0 1 599.084 37.069 Q 606.16 37.992 610.876 43.195 A 17.241 17.241 0 0 1 615.593 55.116 A 23.682 23.682 0 0 1 614.724 61.702 A 17.685 17.685 0 0 1 609.415 70.163 Q 603.943 75.045 594.67 75.603 A 40.908 40.908 0 0 1 592.214 75.675 Z M 718.235 75.675 L 694.189 75.675 L 694.189 1.026 L 713.826 1.026 Q 721.374 1.026 726.618 2.948 A 19.44 19.44 0 0 1 732.052 5.922 Q 738.23 10.819 738.23 20.15 A 21.953 21.953 0 0 1 737.663 25.268 A 15.975 15.975 0 0 1 734.795 31.378 A 14.812 14.812 0 0 1 727.53 36.436 A 19.846 19.846 0 0 1 725.105 37.069 Q 732.18 37.992 736.897 43.195 A 17.241 17.241 0 0 1 741.614 55.116 A 23.682 23.682 0 0 1 740.745 61.702 A 17.685 17.685 0 0 1 735.436 70.163 Q 729.964 75.045 720.691 75.603 A 40.908 40.908 0 0 1 718.235 75.675 Z M 294.595 1.026 L 294.595 72.906 L 332.893 72.906 L 332.893 75.675 L 291.775 75.675 L 291.775 1.026 L 294.595 1.026 Z M 20.918 75.675 L 0 75.675 L 0 1.026 L 20.662 1.026 A 31.494 31.494 0 0 1 31.918 3.009 A 29.541 29.541 0 0 1 36.35 5.128 A 28.955 28.955 0 0 1 47.373 16.638 A 34.399 34.399 0 0 1 51.347 30.399 A 41.233 41.233 0 0 1 51.475 33.224 L 51.475 42.913 A 38.172 38.172 0 0 1 50.092 53.343 A 33.165 33.165 0 0 1 47.552 59.73 A 29.013 29.013 0 0 1 36.606 71.419 A 30.207 30.207 0 0 1 21.458 75.667 A 35.762 35.762 0 0 1 20.918 75.675 Z M 489.009 32.762 L 489.009 43.939 A 46.149 46.149 0 0 1 488.15 53.038 A 35.82 35.82 0 0 1 485.548 61.089 A 28.084 28.084 0 0 1 480.402 68.751 A 25.258 25.258 0 0 1 475.679 72.624 A 26.201 26.201 0 0 1 463.54 76.596 A 32.473 32.473 0 0 1 460.913 76.7 A 28.726 28.726 0 0 1 450.882 75.013 A 25.167 25.167 0 0 1 440.508 67.728 Q 433.151 59.258 432.739 45.215 A 57.494 57.494 0 0 1 432.715 43.529 L 432.715 32.762 A 45.888 45.888 0 0 1 433.58 23.662 A 36.075 36.075 0 0 1 436.176 15.638 A 28.019 28.019 0 0 1 441.293 7.994 A 25.185 25.185 0 0 1 446.071 4.077 Q 452.505 0.001 460.811 0.001 A 29.102 29.102 0 0 1 469.604 1.291 A 25.462 25.462 0 0 1 475.602 4.077 Q 482.036 8.153 485.522 15.664 A 37.211 37.211 0 0 1 488.597 26.416 A 47.396 47.396 0 0 1 489.009 32.762 Z M 21.072 3.795 L 2.769 3.795 L 2.769 72.906 L 20.662 72.906 A 27.446 27.446 0 0 0 34.94 69.087 Q 41.375 65.267 45.015 58.422 A 31.823 31.823 0 0 0 48.652 45.031 A 37.733 37.733 0 0 0 48.706 43.221 L 48.706 33.634 Q 48.706 25.277 45.143 18.458 A 26.682 26.682 0 0 0 35.197 7.768 A 27.44 27.44 0 0 0 21.072 3.795 Z M 486.24 43.529 L 486.24 32.66 A 43.434 43.434 0 0 0 485.353 23.623 Q 483.771 16.186 479.37 10.947 A 22.479 22.479 0 0 0 463.135 2.854 A 31.434 31.434 0 0 0 460.811 2.769 A 26.407 26.407 0 0 0 452.208 4.111 A 21.999 21.999 0 0 0 442.405 10.896 Q 436.167 18.274 435.593 30.492 A 53.837 53.837 0 0 0 435.535 33.018 L 435.535 43.939 Q 435.535 52.86 438.636 59.704 A 25.832 25.832 0 0 0 442.819 66.247 A 22.415 22.415 0 0 0 447.48 70.24 A 23.233 23.233 0 0 0 457.528 73.742 A 29.521 29.521 0 0 0 460.913 73.932 A 26.989 26.989 0 0 0 469.302 72.688 A 21.763 21.763 0 0 0 479.421 65.78 A 27.563 27.563 0 0 0 484.742 55.44 Q 486.24 50.138 486.24 43.529 Z M 209.436 1.026 L 209.436 75.675 L 206.667 75.675 L 206.667 1.026 L 209.436 1.026 Z M 593.599 38.812 L 570.938 38.812 L 570.938 72.906 L 592.522 72.906 A 30.927 30.927 0 0 0 598.53 72.358 Q 602.066 71.657 604.824 70.06 A 16.768 16.768 0 0 0 607.416 68.215 A 15.347 15.347 0 0 0 612.566 58.679 A 22.244 22.244 0 0 0 612.825 55.218 A 15.597 15.597 0 0 0 611.517 48.765 A 15.163 15.163 0 0 0 607.595 43.554 A 18.286 18.286 0 0 0 600.023 39.638 Q 597.092 38.873 593.599 38.812 Z M 719.619 38.812 L 696.958 38.812 L 696.958 72.906 L 718.542 72.906 A 30.927 30.927 0 0 0 724.55 72.358 Q 728.087 71.657 730.845 70.06 A 16.768 16.768 0 0 0 733.436 68.215 A 15.347 15.347 0 0 0 738.586 58.679 A 22.244 22.244 0 0 0 738.845 55.218 A 15.597 15.597 0 0 0 737.538 48.765 A 15.163 15.163 0 0 0 733.616 43.554 A 18.286 18.286 0 0 0 726.044 39.638 Q 723.112 38.873 719.619 38.812 Z M 88.696 4.359 L 71.418 50.604 L 105.923 50.604 L 88.696 4.359 Z M 652.559 4.359 L 635.281 50.604 L 669.785 50.604 L 652.559 4.359 Z M 570.938 3.795 L 570.938 36.043 L 588.831 36.043 Q 599.033 36.043 604.211 32.121 A 12.487 12.487 0 0 0 608.778 25.108 Q 609.39 22.782 609.39 19.945 A 16.966 16.966 0 0 0 607.91 12.605 Q 604.539 5.499 593.485 4.122 A 45.564 45.564 0 0 0 588.42 3.795 L 570.938 3.795 Z M 696.958 3.795 L 696.958 36.043 L 714.851 36.043 Q 725.054 36.043 730.232 32.121 A 12.487 12.487 0 0 0 734.798 25.108 Q 735.41 22.782 735.41 19.945 A 16.966 16.966 0 0 0 733.931 12.605 Q 730.559 5.499 719.505 4.122 A 45.564 45.564 0 0 0 714.441 3.795 L 696.958 3.795 Z" vector-effect="non-scaling-stroke"/></g></svg>