<svg width="904.064" height="93.503" viewBox="0 0 904.064 93.503" xmlns="http://www.w3.org/2000/svg"><g id="svgGroup" stroke-linecap="round" fill-rule="evenodd" font-size="9pt" stroke="#000000" stroke-width="0.1mm" fill="#000000" style="stroke:#000000;stroke-width:0.1mm;fill:#000000"><path d="M 224.438 1.251 L 224.438 92.251 L 221.063 92.251 L 162.313 7.001 L 162.313 92.251 L 158.875 92.251 L 158.875 1.251 L 162.313 1.251 L 221.063 86.314 L 221.063 1.251 L 224.438 1.251 Z M 673.875 26.876 L 670.5 26.876 A 22.574 22.574 0 0 0 668.566 17.44 A 22.066 22.066 0 0 0 663 10.032 A 25.909 25.909 0 0 0 650.301 3.97 A 36.549 36.549 0 0 0 643.563 3.376 Q 633.845 3.376 627.14 6.88 A 24.428 24.428 0 0 0 624.156 8.72 Q 616.75 14.064 616.75 22.126 Q 616.75 30.178 622.976 35.147 A 20.356 20.356 0 0 0 623.188 35.314 Q 629.625 40.314 644.438 44.157 Q 659.25 48.001 666.125 53.064 A 21.734 21.734 0 0 1 672.183 59.665 Q 674.707 64.025 674.864 69.569 A 26.173 26.173 0 0 1 674.875 70.314 Q 674.875 77.189 671 82.47 A 22.761 22.761 0 0 1 664.326 88.48 A 30.117 30.117 0 0 1 660 90.626 A 39.36 39.36 0 0 1 649.895 93.161 A 49.687 49.687 0 0 1 644 93.501 A 51.104 51.104 0 0 1 634.072 92.575 A 40.934 40.934 0 0 1 626.25 90.22 A 29.862 29.862 0 0 1 620.107 86.816 A 22.763 22.763 0 0 1 614.406 80.876 A 24.227 24.227 0 0 1 610.686 70.552 A 31.205 31.205 0 0 1 610.437 66.564 L 613.813 66.564 Q 613.813 77.751 622.188 83.939 A 30.111 30.111 0 0 0 632.862 88.856 Q 637.122 89.928 642.123 90.095 A 56.085 56.085 0 0 0 644 90.126 A 42.794 42.794 0 0 0 652.667 89.296 Q 658.171 88.158 662.481 85.46 A 26.264 26.264 0 0 0 663.688 84.657 A 19.992 19.992 0 0 0 668.334 80.199 A 16.045 16.045 0 0 0 671.437 70.439 A 20.663 20.663 0 0 0 670.936 65.772 A 15.363 15.363 0 0 0 668.719 60.595 A 17.954 17.954 0 0 0 665.548 57.078 Q 663.306 55.138 660.156 53.47 A 46.368 46.368 0 0 0 656.16 51.619 Q 652.061 49.929 646.231 48.193 A 185.924 185.924 0 0 0 642.5 47.126 A 148.903 148.903 0 0 1 636.007 45.191 Q 629.956 43.225 626.043 41.236 A 34.902 34.902 0 0 1 624.781 40.564 A 30.686 30.686 0 0 1 620.649 37.814 Q 618.513 36.11 617.036 34.184 A 17.137 17.137 0 0 1 616.125 32.876 A 17.545 17.545 0 0 1 613.77 26.718 A 24.151 24.151 0 0 1 613.375 22.251 Q 613.375 12.314 621.75 6.157 Q 630.125 0.001 643.563 0.001 A 38.588 38.588 0 0 1 652.782 1.064 A 32.252 32.252 0 0 1 659.281 3.407 A 26.652 26.652 0 0 1 666.876 8.86 A 24.586 24.586 0 0 1 670.062 12.97 A 25.625 25.625 0 0 1 673.856 25.794 A 30.846 30.846 0 0 1 673.875 26.876 Z M 331.813 43.751 L 331.813 47.126 L 286.188 47.126 L 286.188 88.876 L 338.188 88.876 L 338.188 92.251 L 282.813 92.251 L 282.813 1.251 L 338.188 1.251 L 338.188 4.626 L 286.188 4.626 L 286.188 43.751 L 331.813 43.751 Z M 512.125 92.251 L 470.313 44.376 L 455.75 57.814 L 455.75 92.251 L 452.375 92.251 L 452.375 1.251 L 455.75 1.251 L 455.75 53.876 L 470.75 39.189 L 508.5 1.251 L 513.375 1.251 L 472.813 42.064 L 516.5 92.251 L 512.125 92.251 Z M 140.563 92.251 L 130.375 65.064 L 85.813 65.064 L 75.688 92.251 L 72 92.251 L 106.063 1.251 L 110.188 1.251 L 144.25 92.251 L 140.563 92.251 Z M 827.938 92.251 L 817.75 65.064 L 773.188 65.064 L 763.063 92.251 L 759.375 92.251 L 793.438 1.251 L 797.563 1.251 L 831.625 92.251 L 827.938 92.251 Z M 721.938 92.251 L 692.625 92.251 L 692.625 1.251 L 716.563 1.251 Q 725.764 1.251 732.156 3.594 A 23.699 23.699 0 0 1 738.781 7.22 A 19.344 19.344 0 0 1 745.885 19.45 A 29.188 29.188 0 0 1 746.313 24.564 A 26.762 26.762 0 0 1 745.621 30.802 A 19.475 19.475 0 0 1 742.125 38.251 A 18.057 18.057 0 0 1 733.268 44.417 A 24.193 24.193 0 0 1 730.312 45.189 A 22.772 22.772 0 0 1 744.687 52.657 A 21.017 21.017 0 0 1 750.437 67.189 A 28.869 28.869 0 0 1 749.378 75.217 A 21.559 21.559 0 0 1 742.906 85.532 A 24.961 24.961 0 0 1 732.987 90.848 Q 728.079 92.251 721.938 92.251 Z M 875.563 92.251 L 846.25 92.251 L 846.25 1.251 L 870.188 1.251 Q 879.389 1.251 885.781 3.594 A 23.699 23.699 0 0 1 892.406 7.22 A 19.344 19.344 0 0 1 899.51 19.45 A 29.188 29.188 0 0 1 899.938 24.564 A 26.762 26.762 0 0 1 899.246 30.802 A 19.475 19.475 0 0 1 895.75 38.251 A 18.057 18.057 0 0 1 886.893 44.417 A 24.193 24.193 0 0 1 883.937 45.189 A 22.772 22.772 0 0 1 898.312 52.657 A 21.017 21.017 0 0 1 904.062 67.189 A 28.869 28.869 0 0 1 903.003 75.217 A 21.559 21.559 0 0 1 896.531 85.532 A 24.961 24.961 0 0 1 886.612 90.848 Q 881.704 92.251 875.563 92.251 Z M 359.125 1.251 L 359.125 88.876 L 405.813 88.876 L 405.813 92.251 L 355.688 92.251 L 355.688 1.251 L 359.125 1.251 Z M 25.5 92.251 L 0 92.251 L 0 1.251 L 25.188 1.251 A 38.392 38.392 0 0 1 38.909 3.668 A 36.012 36.012 0 0 1 44.313 6.251 A 35.297 35.297 0 0 1 57.75 20.282 A 41.933 41.933 0 0 1 62.595 37.058 A 50.265 50.265 0 0 1 62.75 40.501 L 62.75 52.314 A 46.533 46.533 0 0 1 61.064 65.028 A 40.429 40.429 0 0 1 57.969 72.814 A 35.368 35.368 0 0 1 44.625 87.064 A 36.824 36.824 0 0 1 26.158 92.242 A 43.595 43.595 0 0 1 25.5 92.251 Z M 596.125 39.939 L 596.125 53.564 Q 596.125 65.376 591.906 74.47 A 34.235 34.235 0 0 1 585.633 83.811 A 30.79 30.79 0 0 1 579.875 88.532 A 31.941 31.941 0 0 1 565.077 93.374 A 39.586 39.586 0 0 1 561.875 93.501 A 35.018 35.018 0 0 1 549.647 91.445 A 30.68 30.68 0 0 1 537 82.564 A 37.063 37.063 0 0 1 529.191 67.369 Q 527.5 60.895 527.5 53.064 L 527.5 39.939 A 55.94 55.94 0 0 1 528.555 28.845 A 43.977 43.977 0 0 1 531.719 19.064 A 34.156 34.156 0 0 1 537.957 9.745 A 30.701 30.701 0 0 1 543.781 4.97 A 32.175 32.175 0 0 1 559.101 0.089 A 39.514 39.514 0 0 1 561.75 0.001 A 35.477 35.477 0 0 1 572.469 1.573 A 31.039 31.039 0 0 1 579.781 4.97 A 31.748 31.748 0 0 1 590.756 16.871 A 38.943 38.943 0 0 1 591.875 19.095 A 45.362 45.362 0 0 1 595.623 32.202 A 57.778 57.778 0 0 1 596.125 39.939 Z M 25.688 4.626 L 3.375 4.626 L 3.375 88.876 L 25.188 88.876 A 33.458 33.458 0 0 0 42.594 84.22 A 32.553 32.553 0 0 0 54.875 71.22 A 38.794 38.794 0 0 0 59.309 54.895 A 45.998 45.998 0 0 0 59.375 52.689 L 59.375 41.001 A 41.305 41.305 0 0 0 57.592 28.718 A 37.074 37.074 0 0 0 55.031 22.501 A 32.527 32.527 0 0 0 42.906 9.47 A 33.45 33.45 0 0 0 25.687 4.626 Z M 592.75 53.064 L 592.75 39.814 A 52.948 52.948 0 0 0 591.668 28.798 Q 589.74 19.731 584.375 13.345 A 27.402 27.402 0 0 0 564.584 3.479 A 38.319 38.319 0 0 0 561.75 3.376 Q 547.688 3.376 539.313 13.282 Q 531.708 22.277 531.008 37.171 A 65.63 65.63 0 0 0 530.937 40.251 L 530.938 53.564 Q 530.938 64.439 534.719 72.782 A 31.491 31.491 0 0 0 539.817 80.759 A 27.324 27.324 0 0 0 545.5 85.626 A 28.322 28.322 0 0 0 557.749 89.895 A 35.987 35.987 0 0 0 561.875 90.126 A 32.901 32.901 0 0 0 572.102 88.61 A 26.53 26.53 0 0 0 584.438 80.189 Q 591.776 71.416 592.636 56.992 A 66.023 66.023 0 0 0 592.75 53.064 Z M 255.313 1.251 L 255.313 92.251 L 251.938 92.251 L 251.938 1.251 L 255.313 1.251 Z M 723.625 47.314 L 696 47.314 L 696 88.876 L 722.313 88.876 A 37.701 37.701 0 0 0 729.636 88.208 Q 733.948 87.354 737.31 85.407 A 20.441 20.441 0 0 0 740.469 83.157 A 18.708 18.708 0 0 0 746.747 71.532 A 27.116 27.116 0 0 0 747.063 67.314 A 19.014 19.014 0 0 0 745.469 59.446 A 18.484 18.484 0 0 0 740.688 53.095 A 22.292 22.292 0 0 0 731.457 48.321 Q 727.883 47.388 723.625 47.314 Z M 877.25 47.314 L 849.625 47.314 L 849.625 88.876 L 875.938 88.876 A 37.701 37.701 0 0 0 883.261 88.208 Q 887.573 87.354 890.935 85.407 A 20.441 20.441 0 0 0 894.094 83.157 A 18.708 18.708 0 0 0 900.372 71.532 A 27.116 27.116 0 0 0 900.688 67.314 A 19.014 19.014 0 0 0 899.094 59.446 A 18.484 18.484 0 0 0 894.313 53.095 A 22.292 22.292 0 0 0 885.082 48.321 Q 881.508 47.388 877.25 47.314 Z M 108.125 5.314 L 87.063 61.689 L 129.125 61.689 L 108.125 5.314 Z M 795.5 5.314 L 774.438 61.689 L 816.5 61.689 L 795.5 5.314 Z M 696 4.626 L 696 43.939 L 717.813 43.939 Q 730.25 43.939 736.563 39.157 Q 742.705 34.504 742.87 24.85 A 31.41 31.41 0 0 0 742.875 24.314 A 20.682 20.682 0 0 0 741.071 15.366 Q 736.961 6.703 723.486 5.024 A 55.545 55.545 0 0 0 717.312 4.626 L 696 4.626 Z M 849.625 4.626 L 849.625 43.939 L 871.438 43.939 Q 883.875 43.939 890.188 39.157 Q 896.33 34.504 896.495 24.85 A 31.41 31.41 0 0 0 896.5 24.314 A 20.682 20.682 0 0 0 894.696 15.366 Q 890.586 6.703 877.111 5.024 A 55.545 55.545 0 0 0 870.937 4.626 L 849.625 4.626 Z" vector-effect="non-scaling-stroke"/></g></svg>