<svg width="812.245" height="84.007" viewBox="0 0 812.245 84.007" xmlns="http://www.w3.org/2000/svg"><g id="svgGroup" stroke-linecap="round" fill-rule="evenodd" font-size="9pt" stroke="#000000" stroke-width="0.1mm" fill="#000000" style="stroke:#000000;stroke-width:0.1mm;fill:#000000"><path d="M 201.643 1.124 L 201.643 82.882 L 198.611 82.882 L 145.828 6.29 L 145.828 82.882 L 142.739 82.882 L 142.739 1.124 L 145.828 1.124 L 198.611 77.547 L 198.611 1.124 L 201.643 1.124 Z M 605.435 24.146 L 602.402 24.146 A 20.282 20.282 0 0 0 600.665 15.669 A 19.825 19.825 0 0 0 595.664 9.013 A 23.277 23.277 0 0 0 584.255 3.567 A 32.837 32.837 0 0 0 578.201 3.033 A 39.574 39.574 0 0 0 570.985 3.653 Q 566.796 4.43 563.446 6.182 A 21.947 21.947 0 0 0 560.765 7.834 Q 554.111 12.635 554.111 19.879 Q 554.111 27.113 559.705 31.577 A 18.29 18.29 0 0 0 559.895 31.727 Q 564.933 35.64 575.678 38.764 A 118.093 118.093 0 0 0 578.987 39.673 Q 592.295 43.126 598.472 47.674 A 19.527 19.527 0 0 1 603.914 53.605 Q 606.182 57.523 606.324 62.503 A 23.514 23.514 0 0 1 606.333 63.172 A 17.978 17.978 0 0 1 602.852 74.094 A 20.45 20.45 0 0 1 596.855 79.494 A 27.058 27.058 0 0 1 592.969 81.422 A 35.363 35.363 0 0 1 583.89 83.7 A 44.641 44.641 0 0 1 578.594 84.005 A 45.913 45.913 0 0 1 569.674 83.173 A 36.776 36.776 0 0 1 562.646 81.057 Q 555.571 78.109 552.006 72.662 Q 548.44 67.215 548.44 59.803 L 551.472 59.803 A 21.421 21.421 0 0 0 552.575 66.84 A 17.691 17.691 0 0 0 558.997 75.414 A 27.053 27.053 0 0 0 568.587 79.831 Q 572.414 80.794 576.907 80.945 A 50.389 50.389 0 0 0 578.594 80.973 A 38.447 38.447 0 0 0 586.381 80.227 Q 591.326 79.204 595.197 76.78 A 23.596 23.596 0 0 0 596.282 76.059 A 17.962 17.962 0 0 0 600.456 72.054 A 14.415 14.415 0 0 0 603.245 63.285 A 18.564 18.564 0 0 0 602.794 59.092 A 13.802 13.802 0 0 0 600.802 54.441 A 16.13 16.13 0 0 0 597.954 51.281 Q 596.506 50.028 594.637 48.901 A 31.662 31.662 0 0 0 593.109 48.039 A 41.659 41.659 0 0 0 589.519 46.377 Q 584.708 44.393 577.246 42.34 Q 567.712 39.717 562.46 37.048 A 31.358 31.358 0 0 1 561.327 36.444 A 27.569 27.569 0 0 1 557.614 33.973 Q 555.695 32.443 554.368 30.713 A 15.396 15.396 0 0 1 553.55 29.537 A 15.763 15.763 0 0 1 551.434 24.005 A 21.698 21.698 0 0 1 551.079 19.991 A 16.82 16.82 0 0 1 556.738 7.061 A 22.315 22.315 0 0 1 558.604 5.532 Q 566.128 0.001 578.201 0.001 A 34.669 34.669 0 0 1 586.484 0.956 A 28.977 28.977 0 0 1 592.323 3.061 Q 598.584 6.122 602.009 11.653 A 23.023 23.023 0 0 1 605.418 23.174 A 27.713 27.713 0 0 1 605.435 24.146 Z M 298.113 39.308 L 298.113 42.34 L 257.122 42.34 L 257.122 79.85 L 303.84 79.85 L 303.84 82.882 L 254.089 82.882 L 254.089 1.124 L 303.84 1.124 L 303.84 4.156 L 257.122 4.156 L 257.122 39.308 L 298.113 39.308 Z M 460.112 82.882 L 422.546 39.869 L 409.463 51.942 L 409.463 82.882 L 406.431 82.882 L 406.431 1.124 L 409.463 1.124 L 409.463 48.404 L 422.939 35.208 L 456.855 1.124 L 461.235 1.124 L 424.792 37.791 L 464.043 82.882 L 460.112 82.882 Z M 126.287 82.882 L 117.134 58.456 L 77.097 58.456 L 68 82.882 L 64.688 82.882 L 95.291 1.124 L 98.997 1.124 L 129.6 82.882 L 126.287 82.882 Z M 743.85 82.882 L 734.697 58.456 L 694.661 58.456 L 685.564 82.882 L 682.251 82.882 L 712.854 1.124 L 716.56 1.124 L 747.163 82.882 L 743.85 82.882 Z M 648.616 82.882 L 622.28 82.882 L 622.28 1.124 L 643.787 1.124 Q 656.982 1.124 663.749 6.487 A 17.379 17.379 0 0 1 670.131 17.474 A 26.223 26.223 0 0 1 670.515 22.069 A 24.044 24.044 0 0 1 669.894 27.674 A 17.497 17.497 0 0 1 666.753 34.366 Q 662.991 39.251 656.14 40.599 A 20.46 20.46 0 0 1 669.055 47.309 A 18.883 18.883 0 0 1 674.221 60.365 Q 674.221 70.809 667.455 76.845 A 22.426 22.426 0 0 1 658.543 81.621 Q 654.133 82.882 648.616 82.882 Z M 786.638 82.882 L 760.303 82.882 L 760.303 1.124 L 781.809 1.124 Q 795.005 1.124 801.771 6.487 A 17.379 17.379 0 0 1 808.153 17.474 A 26.223 26.223 0 0 1 808.538 22.069 A 24.044 24.044 0 0 1 807.917 27.674 A 17.497 17.497 0 0 1 804.775 34.366 Q 801.013 39.251 794.163 40.599 A 20.46 20.46 0 0 1 807.078 47.309 A 18.883 18.883 0 0 1 812.244 60.365 Q 812.244 70.809 805.477 76.845 A 22.426 22.426 0 0 1 796.565 81.621 Q 792.156 82.882 786.638 82.882 Z M 322.651 1.124 L 322.651 79.85 L 364.597 79.85 L 364.597 82.882 L 319.563 82.882 L 319.563 1.124 L 322.651 1.124 Z M 22.91 82.882 L 0 82.882 L 0 1.124 L 22.629 1.124 A 34.493 34.493 0 0 1 34.957 3.296 A 32.354 32.354 0 0 1 39.812 5.616 A 31.712 31.712 0 0 1 51.885 18.222 A 37.675 37.675 0 0 1 56.238 33.294 A 45.16 45.16 0 0 1 56.377 36.388 L 56.377 47 A 41.807 41.807 0 0 1 54.863 58.424 A 36.323 36.323 0 0 1 52.081 65.418 Q 47.786 73.617 40.093 78.221 A 33.084 33.084 0 0 1 23.502 82.874 A 39.17 39.17 0 0 1 22.91 82.882 Z M 535.581 35.882 L 535.581 48.123 Q 535.581 58.736 531.791 66.906 A 30.758 30.758 0 0 1 526.154 75.299 A 27.663 27.663 0 0 1 520.981 79.541 A 28.697 28.697 0 0 1 507.687 83.89 A 35.566 35.566 0 0 1 504.81 84.005 A 31.462 31.462 0 0 1 493.823 82.157 A 27.564 27.564 0 0 1 482.461 74.178 Q 473.926 64.352 473.926 47.674 L 473.926 35.882 A 50.258 50.258 0 0 1 474.873 25.915 A 39.51 39.51 0 0 1 477.716 17.127 A 30.687 30.687 0 0 1 483.321 8.755 A 27.583 27.583 0 0 1 488.553 4.465 A 28.907 28.907 0 0 1 502.317 0.08 A 35.5 35.5 0 0 1 504.697 0.001 A 31.874 31.874 0 0 1 514.328 1.413 A 27.887 27.887 0 0 1 520.897 4.465 A 28.524 28.524 0 0 1 530.758 15.158 A 34.988 34.988 0 0 1 531.763 17.155 A 40.755 40.755 0 0 1 535.13 28.932 A 51.91 51.91 0 0 1 535.581 35.882 Z M 23.079 4.156 L 3.032 4.156 L 3.032 79.85 L 22.629 79.85 A 30.06 30.06 0 0 0 38.268 75.666 Q 45.315 71.483 49.302 63.987 A 34.854 34.854 0 0 0 53.285 49.32 A 41.327 41.327 0 0 0 53.345 47.337 L 53.345 36.837 A 37.11 37.11 0 0 0 51.743 25.801 A 33.309 33.309 0 0 0 49.442 20.216 A 29.224 29.224 0 0 0 38.549 8.508 Q 31.558 4.269 23.079 4.156 Z M 532.549 47.674 L 532.549 35.77 Q 532.549 22.764 526.757 14.274 A 28.668 28.668 0 0 0 525.024 11.989 A 24.619 24.619 0 0 0 507.243 3.126 A 34.427 34.427 0 0 0 504.697 3.033 Q 492.063 3.033 484.539 11.933 A 30.141 30.141 0 0 0 478.559 23.591 Q 477.328 28.074 477.078 33.396 A 58.964 58.964 0 0 0 477.014 36.163 L 477.014 48.123 A 47.861 47.861 0 0 0 477.811 57.055 A 36.691 36.691 0 0 0 480.411 65.39 Q 483.809 72.887 490.098 76.93 A 25.446 25.446 0 0 0 501.102 80.765 A 32.332 32.332 0 0 0 504.81 80.973 A 29.559 29.559 0 0 0 513.998 79.61 A 23.836 23.836 0 0 0 525.081 72.044 Q 532.549 63.116 532.549 47.674 Z M 229.382 1.124 L 229.382 82.882 L 226.35 82.882 L 226.35 1.124 L 229.382 1.124 Z M 650.132 42.508 L 625.313 42.508 L 625.313 79.85 L 648.953 79.85 A 33.872 33.872 0 0 0 655.532 79.249 Q 661.366 78.093 665.265 74.712 A 16.808 16.808 0 0 0 670.905 64.267 A 24.362 24.362 0 0 0 671.189 60.477 A 17.083 17.083 0 0 0 669.757 53.409 A 16.607 16.607 0 0 0 665.461 47.702 A 20.028 20.028 0 0 0 657.168 43.414 Q 654.171 42.631 650.637 42.521 A 36.876 36.876 0 0 0 650.132 42.508 Z M 788.154 42.508 L 763.335 42.508 L 763.335 79.85 L 786.975 79.85 A 33.872 33.872 0 0 0 793.555 79.249 Q 799.388 78.093 803.287 74.712 A 16.808 16.808 0 0 0 808.928 64.267 A 24.362 24.362 0 0 0 809.211 60.477 A 17.083 17.083 0 0 0 807.78 53.409 A 16.607 16.607 0 0 0 803.484 47.702 A 20.028 20.028 0 0 0 795.191 43.414 Q 792.193 42.631 788.66 42.521 A 36.876 36.876 0 0 0 788.154 42.508 Z M 97.144 4.774 L 78.22 55.423 L 116.011 55.423 L 97.144 4.774 Z M 714.707 4.774 L 695.784 55.423 L 733.574 55.423 L 714.707 4.774 Z M 625.313 4.156 L 625.313 39.476 L 644.91 39.476 A 46.545 46.545 0 0 0 651.059 39.097 Q 657.768 38.201 661.755 35.18 A 13.676 13.676 0 0 0 666.757 27.499 Q 667.374 25.151 667.423 22.326 A 28.22 28.22 0 0 0 667.427 21.844 Q 667.427 6.684 650.007 4.514 A 49.904 49.904 0 0 0 644.46 4.156 L 625.313 4.156 Z M 763.335 4.156 L 763.335 39.476 L 782.932 39.476 A 46.545 46.545 0 0 0 789.082 39.097 Q 795.79 38.201 799.778 35.18 A 13.676 13.676 0 0 0 804.779 27.499 Q 805.397 25.151 805.445 22.326 A 28.22 28.22 0 0 0 805.449 21.844 Q 805.449 6.684 788.03 4.514 A 49.904 49.904 0 0 0 782.483 4.156 L 763.335 4.156 Z" vector-effect="non-scaling-stroke"/></g></svg>