<svg width="642.8" height="72.801" viewBox="0 0 642.8 72.801" xmlns="http://www.w3.org/2000/svg"><g id="svgGroup" stroke-linecap="round" fill-rule="evenodd" font-size="9pt" stroke="#000000" stroke-width="0.25mm" fill="#000000" style="stroke:#000000;stroke-width:0.25mm;fill:#000000"><path d="M 321 71.8 L 316 71.8 A 2.98 2.98 0 0 1 315.307 71.724 A 1.951 1.951 0 0 1 314.3 71.15 A 2.24 2.24 0 0 1 313.722 69.867 A 3.03 3.03 0 0 1 313.7 69.5 L 313.7 4.2 Q 313.7 3.133 314.265 2.49 A 2.089 2.089 0 0 1 314.3 2.45 A 1.95 1.95 0 0 1 315.303 1.877 Q 315.621 1.801 315.997 1.8 A 2.725 2.725 0 0 1 316 1.8 L 321 1.8 A 3.009 3.009 0 0 1 321.755 1.89 A 2.135 2.135 0 0 1 322.75 2.45 A 2.17 2.17 0 0 1 323.346 3.602 A 3.144 3.144 0 0 1 323.4 4.2 L 323.4 29 L 350.1 3.4 A 3.755 3.755 0 0 1 350.369 3.16 Q 350.674 2.908 351.146 2.597 A 17.764 17.764 0 0 1 351.45 2.4 A 3.513 3.513 0 0 1 352.406 1.99 Q 353.1 1.8 354 1.8 L 359.4 1.8 A 1.908 1.908 0 0 1 360.761 2.362 A 2.504 2.504 0 0 1 360.8 2.4 A 2.091 2.091 0 0 1 361.236 3.018 A 1.879 1.879 0 0 1 361.4 3.8 A 2.615 2.615 0 0 1 361.344 4.358 Q 361.25 4.788 361 5.1 L 330.1 35.3 L 363 68.4 Q 363.5 69 363.5 69.8 A 1.908 1.908 0 0 1 362.938 71.161 A 2.504 2.504 0 0 1 362.9 71.2 A 2.091 2.091 0 0 1 362.283 71.636 A 1.879 1.879 0 0 1 361.5 71.8 L 355.9 71.8 A 7.134 7.134 0 0 1 354.927 71.738 Q 354.44 71.671 354.043 71.531 A 2.922 2.922 0 0 1 353.3 71.15 A 22.556 22.556 0 0 1 352.881 70.841 Q 352.442 70.508 352.163 70.255 A 4.633 4.633 0 0 1 352 70.1 L 323.4 42 L 323.4 69.5 A 2.517 2.517 0 0 1 323.271 70.322 A 2.143 2.143 0 0 1 322.75 71.15 A 2.17 2.17 0 0 1 321.598 71.746 A 3.144 3.144 0 0 1 321 71.8 Z M 429 58.5 L 433.5 58.5 A 2.779 2.779 0 0 1 433.882 58.525 Q 434.142 58.561 434.35 58.65 A 1.115 1.115 0 0 1 434.55 58.767 Q 434.857 58.984 435.3 59.5 A 37.082 37.082 0 0 0 437.229 61.425 A 43.534 43.534 0 0 0 438.2 62.3 A 11.716 11.716 0 0 0 440.364 63.787 A 15.239 15.239 0 0 0 442.15 64.6 A 12.344 12.344 0 0 0 444.338 65.2 Q 445.977 65.5 448 65.5 A 21.93 21.93 0 0 0 451.572 65.226 Q 454.338 64.769 456.4 63.55 A 7.073 7.073 0 0 0 458.411 61.828 Q 459.7 60.175 459.7 57.8 A 7.508 7.508 0 0 0 459.518 56.099 A 5.092 5.092 0 0 0 458.35 53.8 Q 457 52.3 453.55 51.1 Q 450.258 49.955 444.643 48.719 A 165.716 165.716 0 0 0 444.1 48.6 A 51.929 51.929 0 0 1 440.271 47.561 Q 438.478 46.995 436.99 46.35 A 22.187 22.187 0 0 1 434.6 45.15 A 15.999 15.999 0 0 1 432.107 43.371 Q 430.497 41.954 429.6 40.25 A 13.094 13.094 0 0 1 428.177 35.393 A 16.15 16.15 0 0 1 428.1 33.8 A 12.702 12.702 0 0 1 429.552 27.953 A 15.791 15.791 0 0 1 430.3 26.65 A 15.065 15.065 0 0 1 434.182 22.579 A 19.758 19.758 0 0 1 436.75 21 A 18.283 18.283 0 0 1 441.207 19.421 Q 443.296 18.957 445.725 18.84 A 34.811 34.811 0 0 1 447.4 18.8 A 34.857 34.857 0 0 1 451.378 19.015 Q 453.401 19.248 455.132 19.733 A 18.927 18.927 0 0 1 456.3 20.1 A 24.899 24.899 0 0 1 459.289 21.362 Q 460.83 22.142 462.056 23.079 A 14.745 14.745 0 0 1 462.4 23.35 Q 464.284 24.881 465.429 26.382 A 11.296 11.296 0 0 1 466 27.2 Q 467.2 29.1 467.3 30.4 A 2.458 2.458 0 0 1 467.313 30.644 Q 467.313 31.442 466.756 31.996 A 2.23 2.23 0 0 1 466.7 32.05 Q 466 32.7 465.1 32.7 L 460.9 32.7 A 2.686 2.686 0 0 1 460.41 32.658 Q 460.031 32.588 459.75 32.4 Q 459.3 32.1 458.9 31.7 A 21.944 21.944 0 0 0 457.513 30.075 A 26.827 26.827 0 0 0 456.55 29.1 A 9.141 9.141 0 0 0 454.89 27.846 Q 454.084 27.364 453.113 26.975 A 14.936 14.936 0 0 0 453.05 26.95 Q 451.488 26.333 449.213 26.164 A 24.535 24.535 0 0 0 447.4 26.1 Q 444.268 26.1 442.117 26.925 A 7.688 7.688 0 0 0 439.9 28.2 A 7.069 7.069 0 0 0 438.106 30.411 A 6.725 6.725 0 0 0 437.4 33.5 Q 437.4 35.4 438.5 36.9 Q 439.6 38.4 442.7 39.6 A 34.729 34.729 0 0 0 444.681 40.291 Q 446.851 40.983 449.93 41.734 A 145.536 145.536 0 0 0 451.9 42.2 Q 456.231 43.053 459.357 44.294 A 22.296 22.296 0 0 1 462.3 45.7 A 18.556 18.556 0 0 1 464.841 47.449 Q 466.7 48.988 467.7 50.8 A 12.804 12.804 0 0 1 469.159 55.323 A 16.329 16.329 0 0 1 469.3 57.5 Q 469.3 61.7 466.9 65.2 Q 464.5 68.7 459.7 70.75 A 23.621 23.621 0 0 1 454.898 72.187 Q 452.57 72.638 449.887 72.757 A 44.637 44.637 0 0 1 447.9 72.8 A 37.606 37.606 0 0 1 443.614 72.569 Q 441.41 72.316 439.523 71.785 A 20.539 20.539 0 0 1 438.3 71.4 Q 434.3 70 431.8 68 Q 429.3 66 428.05 64 A 16.111 16.111 0 0 1 427.467 62.994 Q 426.774 61.682 426.7 60.8 A 2.66 2.66 0 0 1 426.689 60.591 Q 426.678 59.642 427.4 59.1 A 3.419 3.419 0 0 1 428.013 58.729 Q 428.46 58.522 428.908 58.502 A 2.135 2.135 0 0 1 429 58.5 Z M 130.1 71.8 L 125.1 71.8 A 2.517 2.517 0 0 1 124.279 71.671 A 2.143 2.143 0 0 1 123.45 71.15 A 2.195 2.195 0 0 1 122.806 69.685 A 2.933 2.933 0 0 1 122.8 69.5 L 122.8 22.1 A 2.517 2.517 0 0 1 122.929 21.279 A 2.143 2.143 0 0 1 123.45 20.45 A 2.195 2.195 0 0 1 124.916 19.806 A 2.933 2.933 0 0 1 125.1 19.8 L 129.8 19.8 A 2.517 2.517 0 0 1 130.621 19.929 A 2.143 2.143 0 0 1 131.45 20.45 A 2.195 2.195 0 0 1 132.094 21.916 A 2.933 2.933 0 0 1 132.1 22.1 L 132.1 26.5 Q 134.7 23.1 138.65 20.95 Q 141.925 19.168 146.747 18.863 A 32.58 32.58 0 0 1 148.8 18.8 A 24.697 24.697 0 0 1 154.026 19.327 A 18.068 18.068 0 0 1 159.85 21.65 Q 164.4 24.5 166.75 29.55 A 24.648 24.648 0 0 1 168.712 36.129 A 33.063 33.063 0 0 1 169.1 41.3 L 169.1 69.5 A 2.517 2.517 0 0 1 168.971 70.322 A 2.143 2.143 0 0 1 168.45 71.15 A 2.195 2.195 0 0 1 166.985 71.795 A 2.933 2.933 0 0 1 166.8 71.8 L 161.8 71.8 A 2.517 2.517 0 0 1 160.979 71.671 A 2.143 2.143 0 0 1 160.15 71.15 A 2.195 2.195 0 0 1 159.506 69.685 A 2.933 2.933 0 0 1 159.5 69.5 L 159.5 41.8 A 23.237 23.237 0 0 0 159.116 37.441 Q 158.642 34.961 157.583 33.007 A 12.224 12.224 0 0 0 156.1 30.85 A 10.891 10.891 0 0 0 150.431 27.411 Q 148.625 26.94 146.468 26.903 A 21.611 21.611 0 0 0 146.1 26.9 A 15.78 15.78 0 0 0 141.63 27.503 A 12.161 12.161 0 0 0 136.15 30.85 A 13.053 13.053 0 0 0 133.019 36.616 Q 132.48 38.655 132.41 41.076 A 25.257 25.257 0 0 0 132.4 41.8 L 132.4 69.5 A 2.517 2.517 0 0 1 132.271 70.322 A 2.143 2.143 0 0 1 131.75 71.15 A 2.195 2.195 0 0 1 130.285 71.795 A 2.933 2.933 0 0 1 130.1 71.8 Z M 84.1 41.3 L 99 39.2 L 99 36.3 Q 99 31.808 96.591 29.155 A 8.579 8.579 0 0 0 96.25 28.8 Q 93.525 26.125 87.411 26.101 A 28.273 28.273 0 0 0 87.3 26.1 A 17.632 17.632 0 0 0 84.255 26.348 Q 81.861 26.768 80.1 27.9 A 10.568 10.568 0 0 0 77.695 29.986 A 9.012 9.012 0 0 0 76.2 32.5 A 2.862 2.862 0 0 1 75.771 33.251 Q 75.161 34 74.1 34 L 69.6 34 Q 68.772 34 68.255 33.632 A 1.667 1.667 0 0 1 67.95 33.35 A 2.314 2.314 0 0 1 67.4 31.842 A 2.918 2.918 0 0 1 67.4 31.8 A 5.049 5.049 0 0 1 67.536 30.686 Q 67.779 29.618 68.455 28.285 A 17.218 17.218 0 0 1 68.55 28.1 Q 69.609 26.075 71.727 24.134 A 21.914 21.914 0 0 1 72.1 23.8 Q 74.35 21.832 77.787 20.434 A 28.88 28.88 0 0 1 78.25 20.25 A 19.83 19.83 0 0 1 81.847 19.259 Q 83.655 18.929 85.733 18.837 A 37.4 37.4 0 0 1 87.4 18.8 A 38.807 38.807 0 0 1 91.633 19.018 Q 94.938 19.382 97.5 20.35 A 20.099 20.099 0 0 1 100.648 21.845 Q 102.409 22.889 103.69 24.222 A 12.386 12.386 0 0 1 103.95 24.5 Q 106.3 27.1 107.35 30.4 Q 108.4 33.7 108.4 37.1 L 108.4 69.5 A 2.517 2.517 0 0 1 108.271 70.322 A 2.143 2.143 0 0 1 107.75 71.15 A 2.195 2.195 0 0 1 106.285 71.795 A 2.933 2.933 0 0 1 106.1 71.8 L 101.5 71.8 A 2.98 2.98 0 0 1 100.807 71.724 A 1.951 1.951 0 0 1 99.8 71.15 A 2.24 2.24 0 0 1 99.222 69.867 A 3.03 3.03 0 0 1 99.2 69.5 L 99.2 65.2 A 15.364 15.364 0 0 1 97.702 66.96 Q 96.817 67.862 95.7 68.75 Q 93.533 70.474 90.298 71.616 A 26.194 26.194 0 0 1 90.2 71.65 Q 86.9 72.8 82.1 72.8 A 21.663 21.663 0 0 1 76.202 72.019 A 19.097 19.097 0 0 1 73 70.8 A 18.382 18.382 0 0 1 68.308 67.572 A 16.666 16.666 0 0 1 66.4 65.4 Q 63.9 62 63.9 57.7 A 13.632 13.632 0 0 1 65.09 51.934 Q 66.384 49.123 69.084 47.015 A 16.908 16.908 0 0 1 69.5 46.7 Q 75.1 42.6 84.1 41.3 Z M 556.9 41.3 L 571.8 39.2 L 571.8 36.3 Q 571.8 31.808 569.391 29.155 A 8.579 8.579 0 0 0 569.05 28.8 Q 566.325 26.125 560.211 26.101 A 28.273 28.273 0 0 0 560.1 26.1 A 17.632 17.632 0 0 0 557.055 26.348 Q 554.661 26.768 552.9 27.9 A 10.568 10.568 0 0 0 550.495 29.986 A 9.012 9.012 0 0 0 549 32.5 A 2.862 2.862 0 0 1 548.571 33.251 Q 547.961 34 546.9 34 L 542.4 34 Q 541.572 34 541.055 33.632 A 1.667 1.667 0 0 1 540.75 33.35 A 2.314 2.314 0 0 1 540.2 31.842 A 2.918 2.918 0 0 1 540.2 31.8 A 5.049 5.049 0 0 1 540.336 30.686 Q 540.579 29.618 541.255 28.285 A 17.218 17.218 0 0 1 541.35 28.1 Q 542.409 26.075 544.527 24.134 A 21.914 21.914 0 0 1 544.9 23.8 Q 547.15 21.832 550.587 20.434 A 28.88 28.88 0 0 1 551.05 20.25 A 19.83 19.83 0 0 1 554.647 19.259 Q 556.455 18.929 558.533 18.837 A 37.4 37.4 0 0 1 560.2 18.8 A 38.807 38.807 0 0 1 564.433 19.018 Q 567.738 19.382 570.3 20.35 A 20.099 20.099 0 0 1 573.448 21.845 Q 575.209 22.889 576.49 24.222 A 12.386 12.386 0 0 1 576.75 24.5 Q 579.1 27.1 580.15 30.4 Q 581.2 33.7 581.2 37.1 L 581.2 69.5 A 2.517 2.517 0 0 1 581.071 70.322 A 2.143 2.143 0 0 1 580.55 71.15 A 2.195 2.195 0 0 1 579.085 71.795 A 2.933 2.933 0 0 1 578.9 71.8 L 574.3 71.8 A 2.98 2.98 0 0 1 573.607 71.724 A 1.951 1.951 0 0 1 572.6 71.15 A 2.24 2.24 0 0 1 572.022 69.867 A 3.03 3.03 0 0 1 572 69.5 L 572 65.2 A 15.364 15.364 0 0 1 570.502 66.96 Q 569.617 67.862 568.5 68.75 Q 566.333 70.474 563.098 71.616 A 26.194 26.194 0 0 1 563 71.65 Q 559.7 72.8 554.9 72.8 A 21.663 21.663 0 0 1 549.002 72.019 A 19.097 19.097 0 0 1 545.8 70.8 A 18.382 18.382 0 0 1 541.108 67.572 A 16.666 16.666 0 0 1 539.2 65.4 Q 536.7 62 536.7 57.7 A 13.632 13.632 0 0 1 537.89 51.934 Q 539.184 49.123 541.884 47.015 A 16.908 16.908 0 0 1 542.3 46.7 Q 547.9 42.6 556.9 41.3 Z M 251.6 44.9 L 251.6 46.6 A 2.98 2.98 0 0 1 251.524 47.294 A 1.951 1.951 0 0 1 250.95 48.3 A 2.24 2.24 0 0 1 249.666 48.879 A 3.03 3.03 0 0 1 249.3 48.9 L 214.7 48.9 L 214.7 49.3 L 214.7 49.8 A 20.968 20.968 0 0 0 216.401 57.228 A 20.168 20.168 0 0 0 216.5 57.45 Q 218.1 61 221.15 63.2 Q 224.2 65.4 228.3 65.4 A 19.526 19.526 0 0 0 230.831 65.246 Q 232.123 65.076 233.213 64.722 A 10.09 10.09 0 0 0 234.3 64.3 Q 236.397 63.339 237.806 62.188 A 10.843 10.843 0 0 0 238.2 61.85 Q 239.7 60.5 240.2 59.7 A 14.331 14.331 0 0 1 240.575 59.221 Q 241.209 58.446 241.6 58.25 A 1.786 1.786 0 0 1 241.95 58.124 Q 242.427 58 243.2 58 L 248.1 58 A 2.459 2.459 0 0 1 249.01 58.165 A 2.282 2.282 0 0 1 249.65 58.55 A 1.563 1.563 0 0 1 250.206 59.661 Q 250.223 59.869 250.2 60.1 Q 250.107 61.5 248.794 63.466 A 16.823 16.823 0 0 1 248.6 63.75 A 15.642 15.642 0 0 1 246.984 65.689 Q 245.854 66.852 244.35 68 A 20.033 20.033 0 0 1 241.061 70.02 A 27.616 27.616 0 0 1 237.55 71.45 Q 233.5 72.8 228.4 72.8 A 27.507 27.507 0 0 1 221.273 71.926 A 19.845 19.845 0 0 1 211.9 66.45 A 22.885 22.885 0 0 1 206.508 56.985 Q 205.502 53.621 205.233 49.635 A 41.642 41.642 0 0 1 205.2 49.1 A 28.552 28.552 0 0 1 205.143 48.118 Q 205.1 47.096 205.1 45.75 Q 205.1 43.7 205.2 42.4 Q 205.6 35.3 208.5 29.95 Q 211.4 24.6 216.45 21.7 A 21.625 21.625 0 0 1 224.026 19.113 A 28.273 28.273 0 0 1 228.3 18.8 Q 235.477 18.8 240.469 21.654 A 18.441 18.441 0 0 1 241.05 22 A 20.213 20.213 0 0 1 248.531 30.329 A 24.587 24.587 0 0 1 248.9 31.1 Q 251.6 37 251.6 44.9 Z M 490.2 65.3 L 490.2 69.5 A 2.517 2.517 0 0 1 490.071 70.322 A 2.143 2.143 0 0 1 489.55 71.15 A 2.195 2.195 0 0 1 488.085 71.795 A 2.933 2.933 0 0 1 487.9 71.8 L 483.3 71.8 A 2.517 2.517 0 0 1 482.479 71.671 A 2.143 2.143 0 0 1 481.65 71.15 A 2.195 2.195 0 0 1 481.006 69.685 A 2.933 2.933 0 0 1 481 69.5 L 481 3.1 A 2.517 2.517 0 0 1 481.129 2.279 A 2.143 2.143 0 0 1 481.65 1.45 A 2.195 2.195 0 0 1 483.116 0.806 A 2.933 2.933 0 0 1 483.3 0.8 L 488.2 0.8 A 2.49 2.49 0 0 1 488.92 0.9 A 1.936 1.936 0 0 1 489.8 1.45 A 2.24 2.24 0 0 1 490.379 2.734 A 3.03 3.03 0 0 1 490.4 3.1 L 490.4 26.1 A 19.558 19.558 0 0 1 494.854 22.087 A 23.885 23.885 0 0 1 496.85 20.9 Q 500.8 18.8 506.6 18.8 Q 512.2 18.8 516.15 20.75 Q 520.1 22.7 522.65 26.1 A 24.481 24.481 0 0 1 526.418 33.533 A 27.557 27.557 0 0 1 526.5 33.8 Q 527.8 38.1 528 42.8 A 52.06 52.06 0 0 1 528.086 44.722 A 42.441 42.441 0 0 1 528.1 45.8 A 44.702 44.702 0 0 1 528.061 47.628 A 54.711 54.711 0 0 1 528 48.8 A 37.156 37.156 0 0 1 526.879 56.544 A 34.008 34.008 0 0 1 526.5 57.9 Q 525.2 62.2 522.65 65.55 Q 520.1 68.9 516.15 70.85 A 17.993 17.993 0 0 1 511.638 72.343 Q 509.313 72.8 506.6 72.8 A 27.821 27.821 0 0 1 502.381 72.498 Q 500.036 72.138 498.089 71.348 A 15.243 15.243 0 0 1 496.6 70.65 A 21.067 21.067 0 0 1 492.655 67.942 A 17.424 17.424 0 0 1 490.2 65.3 Z M 604.9 65.3 L 604.9 69.5 A 2.517 2.517 0 0 1 604.771 70.322 A 2.143 2.143 0 0 1 604.25 71.15 A 2.195 2.195 0 0 1 602.785 71.795 A 2.933 2.933 0 0 1 602.6 71.8 L 598 71.8 A 2.517 2.517 0 0 1 597.179 71.671 A 2.143 2.143 0 0 1 596.35 71.15 A 2.195 2.195 0 0 1 595.706 69.685 A 2.933 2.933 0 0 1 595.7 69.5 L 595.7 3.1 A 2.517 2.517 0 0 1 595.829 2.279 A 2.143 2.143 0 0 1 596.35 1.45 A 2.195 2.195 0 0 1 597.816 0.806 A 2.933 2.933 0 0 1 598 0.8 L 602.9 0.8 A 2.49 2.49 0 0 1 603.62 0.9 A 1.936 1.936 0 0 1 604.5 1.45 A 2.24 2.24 0 0 1 605.079 2.734 A 3.03 3.03 0 0 1 605.1 3.1 L 605.1 26.1 A 19.558 19.558 0 0 1 609.554 22.087 A 23.885 23.885 0 0 1 611.55 20.9 Q 615.5 18.8 621.3 18.8 Q 626.9 18.8 630.85 20.75 Q 634.8 22.7 637.35 26.1 A 24.481 24.481 0 0 1 641.118 33.533 A 27.557 27.557 0 0 1 641.2 33.8 Q 642.5 38.1 642.7 42.8 A 52.06 52.06 0 0 1 642.786 44.722 A 42.441 42.441 0 0 1 642.8 45.8 A 44.702 44.702 0 0 1 642.761 47.628 A 54.711 54.711 0 0 1 642.7 48.8 A 37.156 37.156 0 0 1 641.579 56.544 A 34.008 34.008 0 0 1 641.2 57.9 Q 639.9 62.2 637.35 65.55 Q 634.8 68.9 630.85 70.85 A 17.993 17.993 0 0 1 626.338 72.343 Q 624.013 72.8 621.3 72.8 A 27.821 27.821 0 0 1 617.081 72.498 Q 614.736 72.138 612.789 71.348 A 15.243 15.243 0 0 1 611.3 70.65 A 21.067 21.067 0 0 1 607.355 67.942 A 17.424 17.424 0 0 1 604.9 65.3 Z M 25.5 71.8 L 2.3 71.8 A 2.98 2.98 0 0 1 1.607 71.724 A 1.951 1.951 0 0 1 0.6 71.15 A 2.24 2.24 0 0 1 0.022 69.867 A 3.03 3.03 0 0 1 0 69.5 L 0 4.2 Q 0 3.133 0.565 2.49 A 2.089 2.089 0 0 1 0.6 2.45 A 1.95 1.95 0 0 1 1.603 1.877 Q 1.921 1.801 2.297 1.8 A 2.725 2.725 0 0 1 2.3 1.8 L 25 1.8 Q 32.343 1.8 37.653 3.376 A 25.094 25.094 0 0 1 41.6 4.9 Q 47.9 8 50.8 14.05 A 28.495 28.495 0 0 1 52.953 20.557 Q 53.749 24.363 53.8 28.9 A 465.638 465.638 0 0 1 53.861 32.121 Q 53.9 34.675 53.9 36.8 Q 53.9 39.722 53.826 43.383 A 477.724 477.724 0 0 1 53.8 44.6 A 51.532 51.532 0 0 1 53.277 51.057 Q 52.788 54.346 51.852 57.105 A 26.105 26.105 0 0 1 50.75 59.85 Q 47.9 65.9 41.75 68.85 A 26.459 26.459 0 0 1 36.222 70.733 Q 31.576 71.8 25.5 71.8 Z M 388.244 72.358 A 32.978 32.978 0 0 0 393.8 72.8 A 38.04 38.04 0 0 0 395.203 72.775 Q 401.878 72.528 406.5 69.9 Q 411.6 67 414.3 61.85 A 25.148 25.148 0 0 0 416.254 56.885 A 30.47 30.47 0 0 0 417.3 50.1 Q 417.375 48.825 417.394 47.016 A 122.336 122.336 0 0 0 417.4 45.75 A 136.69 136.69 0 0 0 417.4 45.511 Q 417.396 43.027 417.3 41.5 A 32.172 32.172 0 0 0 416.839 37.276 A 25.183 25.183 0 0 0 414.25 29.7 Q 411.5 24.6 406.4 21.7 A 18.923 18.923 0 0 0 405.327 21.135 Q 400.53 18.8 393.8 18.8 A 37.717 37.717 0 0 0 392.928 18.81 Q 389.903 18.88 387.284 19.44 A 21.181 21.181 0 0 0 381.2 21.7 Q 376.1 24.6 373.35 29.7 Q 370.6 34.8 370.3 41.5 Q 370.2 43.1 370.2 45.75 A 132.619 132.619 0 0 0 370.201 46.299 Q 370.211 48.58 370.3 50.1 Q 370.6 56.7 373.3 61.85 Q 376 67 381.1 69.9 A 18.854 18.854 0 0 0 382.517 70.628 Q 385.099 71.82 388.244 72.358 Z M 9.8 10.3 L 9.8 63.3 L 25 63.3 A 40.88 40.88 0 0 0 29.227 63.096 Q 33.245 62.677 36 61.4 Q 40.1 59.5 41.95 55.3 A 19.619 19.619 0 0 0 43.091 51.771 Q 43.838 48.513 43.9 44.2 Q 44.1 41.2 44.1 38.95 L 44.1 34.45 A 60.823 60.823 0 0 0 44.062 32.357 Q 44.025 31.288 43.952 30.103 A 103.999 103.999 0 0 0 43.9 29.3 A 34.785 34.785 0 0 0 43.411 23.986 Q 42.394 18.22 39.3 14.95 Q 34.978 10.383 24.867 10.302 A 45.808 45.808 0 0 0 24.5 10.3 L 9.8 10.3 Z M 270.7 71.8 L 266 71.8 A 2.517 2.517 0 0 1 265.179 71.671 A 2.143 2.143 0 0 1 264.35 71.15 A 2.195 2.195 0 0 1 263.706 69.685 A 2.933 2.933 0 0 1 263.7 69.5 L 263.7 3.1 A 2.517 2.517 0 0 1 263.829 2.279 A 2.143 2.143 0 0 1 264.35 1.45 A 2.195 2.195 0 0 1 265.816 0.806 A 2.933 2.933 0 0 1 266 0.8 L 270.7 0.8 A 2.98 2.98 0 0 1 271.394 0.876 A 1.951 1.951 0 0 1 272.4 1.45 A 2.24 2.24 0 0 1 272.979 2.734 A 3.03 3.03 0 0 1 273 3.1 L 273 69.5 A 2.735 2.735 0 0 1 272.893 70.282 A 2.178 2.178 0 0 1 272.4 71.15 A 1.95 1.95 0 0 1 271.397 71.724 Q 271.079 71.8 270.703 71.8 A 2.725 2.725 0 0 1 270.7 71.8 Z M 190.5 71.8 L 185.7 71.8 A 2.517 2.517 0 0 1 184.879 71.671 A 2.143 2.143 0 0 1 184.05 71.15 A 2.195 2.195 0 0 1 183.406 69.685 A 2.933 2.933 0 0 1 183.4 69.5 L 183.4 22.1 A 2.517 2.517 0 0 1 183.529 21.279 A 2.143 2.143 0 0 1 184.05 20.45 A 2.195 2.195 0 0 1 185.516 19.806 A 2.933 2.933 0 0 1 185.7 19.8 L 190.5 19.8 A 2.517 2.517 0 0 1 191.321 19.929 A 2.143 2.143 0 0 1 192.15 20.45 A 2.195 2.195 0 0 1 192.794 21.916 A 2.933 2.933 0 0 1 192.8 22.1 L 192.8 69.5 A 2.517 2.517 0 0 1 192.671 70.322 A 2.143 2.143 0 0 1 192.15 71.15 A 2.195 2.195 0 0 1 190.685 71.795 A 2.933 2.933 0 0 1 190.5 71.8 Z M 393.8 65.1 Q 400 65.1 403.7 61.15 A 13.345 13.345 0 0 0 406.487 56.467 Q 407.545 53.519 407.7 49.6 A 38.263 38.263 0 0 0 407.757 48.475 Q 407.8 47.31 407.8 45.8 A 92.546 92.546 0 0 0 407.794 44.7 Q 407.776 43.23 407.71 42.152 A 30.725 30.725 0 0 0 407.7 42 A 26.211 26.211 0 0 0 407.159 37.506 Q 406.215 33.135 403.7 30.45 A 12.272 12.272 0 0 0 396.216 26.663 A 17.301 17.301 0 0 0 393.8 26.5 A 15.78 15.78 0 0 0 389.33 27.103 A 12.161 12.161 0 0 0 383.85 30.45 A 13.098 13.098 0 0 0 380.995 35.29 Q 380.315 37.269 380.053 39.678 A 28.381 28.381 0 0 0 379.9 42 A 38.263 38.263 0 0 0 379.843 43.126 Q 379.8 44.291 379.8 45.8 A 92.552 92.552 0 0 0 379.806 46.9 Q 379.824 48.371 379.89 49.449 A 30.725 30.725 0 0 0 379.9 49.6 A 25.387 25.387 0 0 0 380.392 54.095 Q 381.301 58.466 383.85 61.15 Q 387.6 65.1 393.8 65.1 Z M 504.5 64.7 Q 509.7 64.7 512.65 62.45 Q 515.6 60.2 516.9 56.55 A 26.551 26.551 0 0 0 518.305 50.064 A 30.554 30.554 0 0 0 518.4 48.7 Q 518.5 45.8 518.4 42.9 A 27.964 27.964 0 0 0 517.481 36.91 A 25.018 25.018 0 0 0 516.9 35.05 Q 515.6 31.4 512.65 29.15 A 10.063 10.063 0 0 0 509.39 27.535 Q 507.263 26.9 504.5 26.9 A 16.542 16.542 0 0 0 501.009 27.25 A 11.567 11.567 0 0 0 496.7 29.1 Q 493.6 31.3 492.05 34.7 A 18.073 18.073 0 0 0 490.501 40.183 A 16.851 16.851 0 0 0 490.4 41.6 A 45.477 45.477 0 0 0 490.339 42.892 Q 490.3 44.044 490.3 45.45 A 85.614 85.614 0 0 0 490.314 47.046 Q 490.329 47.83 490.359 48.515 A 42.014 42.014 0 0 0 490.4 49.3 Q 490.6 53 492.05 56.55 Q 493.5 60.1 496.55 62.4 A 10.912 10.912 0 0 0 500.559 64.258 Q 502.113 64.642 503.936 64.693 A 20.204 20.204 0 0 0 504.5 64.7 Z M 619.2 64.7 Q 624.4 64.7 627.35 62.45 Q 630.3 60.2 631.6 56.55 A 26.551 26.551 0 0 0 633.005 50.064 A 30.554 30.554 0 0 0 633.1 48.7 Q 633.2 45.8 633.1 42.9 A 27.964 27.964 0 0 0 632.181 36.91 A 25.018 25.018 0 0 0 631.6 35.05 Q 630.3 31.4 627.35 29.15 A 10.063 10.063 0 0 0 624.09 27.535 Q 621.963 26.9 619.2 26.9 A 16.542 16.542 0 0 0 615.709 27.25 A 11.567 11.567 0 0 0 611.4 29.1 Q 608.3 31.3 606.75 34.7 A 18.073 18.073 0 0 0 605.201 40.183 A 16.851 16.851 0 0 0 605.1 41.6 A 45.477 45.477 0 0 0 605.039 42.892 Q 605 44.044 605 45.45 A 85.614 85.614 0 0 0 605.014 47.046 Q 605.029 47.83 605.059 48.515 A 42.014 42.014 0 0 0 605.1 49.3 Q 605.3 53 606.75 56.55 Q 608.2 60.1 611.25 62.4 A 10.912 10.912 0 0 0 615.259 64.258 Q 616.813 64.642 618.636 64.693 A 20.204 20.204 0 0 0 619.2 64.7 Z M 214.7 41.7 L 214.7 42 L 242.1 42 L 242.1 41.7 Q 242.1 37.2 240.45 33.7 Q 238.8 30.2 235.7 28.15 A 12.262 12.262 0 0 0 230.686 26.272 A 16.083 16.083 0 0 0 228.3 26.1 A 15.045 15.045 0 0 0 224.66 26.521 A 11.621 11.621 0 0 0 220.95 28.15 Q 217.9 30.2 216.3 33.7 A 17.493 17.493 0 0 0 214.907 38.595 A 22.568 22.568 0 0 0 214.7 41.7 Z M 99 48.8 L 99 46 L 87.4 47.7 A 45.452 45.452 0 0 0 83.398 48.435 Q 79.49 49.349 77.05 50.83 A 12.598 12.598 0 0 0 76.7 51.05 A 9.63 9.63 0 0 0 74.802 52.641 A 6.308 6.308 0 0 0 73.1 57 A 7.808 7.808 0 0 0 73.41 59.25 A 6.263 6.263 0 0 0 74.75 61.65 A 9.711 9.711 0 0 0 78.175 64.096 A 11.703 11.703 0 0 0 78.95 64.4 Q 81.5 65.3 84.2 65.3 A 16.677 16.677 0 0 0 89.62 64.435 A 15.409 15.409 0 0 0 91.7 63.55 A 12.166 12.166 0 0 0 96.507 59.049 A 15.209 15.209 0 0 0 97.05 58.1 Q 98.733 54.907 98.964 50.299 A 30.001 30.001 0 0 0 99 48.8 Z M 571.8 48.8 L 571.8 46 L 560.2 47.7 A 45.452 45.452 0 0 0 556.198 48.435 Q 552.29 49.349 549.85 50.83 A 12.598 12.598 0 0 0 549.5 51.05 A 9.63 9.63 0 0 0 547.602 52.641 A 6.308 6.308 0 0 0 545.9 57 A 7.808 7.808 0 0 0 546.21 59.25 A 6.263 6.263 0 0 0 547.55 61.65 A 9.711 9.711 0 0 0 550.975 64.096 A 11.703 11.703 0 0 0 551.75 64.4 Q 554.3 65.3 557 65.3 A 16.677 16.677 0 0 0 562.42 64.435 A 15.409 15.409 0 0 0 564.5 63.55 A 12.166 12.166 0 0 0 569.307 59.049 A 15.209 15.209 0 0 0 569.85 58.1 Q 571.533 54.907 571.764 50.299 A 30.001 30.001 0 0 0 571.8 48.8 Z M 191.2 10.1 L 184.9 10.1 A 2.517 2.517 0 0 1 184.079 9.971 A 2.143 2.143 0 0 1 183.25 9.45 A 2.195 2.195 0 0 1 182.606 7.985 A 2.933 2.933 0 0 1 182.6 7.8 L 182.6 2.4 Q 182.6 1.4 183.25 0.7 A 2.138 2.138 0 0 1 184.807 0.002 A 2.789 2.789 0 0 1 184.9 0 L 191.2 0 A 2.312 2.312 0 0 1 192.878 0.679 A 2.755 2.755 0 0 1 192.9 0.7 A 2.311 2.311 0 0 1 193.6 2.369 A 2.839 2.839 0 0 1 193.6 2.4 L 193.6 7.8 A 2.336 2.336 0 0 1 193.446 8.661 A 2.134 2.134 0 0 1 192.9 9.45 Q 192.2 10.1 191.2 10.1 Z" vector-effect="non-scaling-stroke"/></g></svg>